<!--?xml version="1.0" standalone="no"?-->
<svg id="sw-js-blob-svg" viewBox="0 0 100 100" xmlns="http://www.w3.org/2000/svg">

    <path fill="rgba(155, 250, 208, 1)" d="M20.2,-30.2C27.7,-26.6,36.2,-23.5,38.8,-17.7C41.5,-12,38.2,-3.5,34.8,3.4C31.3,10.3,27.7,15.6,23.5,20.3C19.3,25.1,14.6,29.4,8.9,31.7C3.2,34,-3.5,34.3,-8.8,31.9C-14.2,29.5,-18.2,24.4,-21.5,19.3C-24.9,14.3,-27.6,9.3,-30.8,3C-34,-3.4,-37.8,-11.2,-37.2,-18.9C-36.7,-26.6,-31.8,-34.3,-24.9,-38.1C-18,-41.9,-9,-41.7,-1.3,-39.7C6.4,-37.6,12.7,-33.7,20.2,-30.2Z" transform="translate(50 50)" stroke-width="0" style="transition: all 0.3s ease 0s;" stroke="url(#sw-gradient)"></path>
</svg>
